<?xml version="1.0" encoding="UTF-8" standalone="no"?>
<svg
   xmlns:dc="http://purl.org/dc/elements/1.1/"
   xmlns:cc="http://creativecommons.org/ns#"
   xmlns:rdf="http://www.w3.org/1999/02/22-rdf-syntax-ns#"
   xmlns:svg="http://www.w3.org/2000/svg"
   xmlns="http://www.w3.org/2000/svg"
   width="20.112467mm"
   height="7.5189209mm"
   viewBox="0 0 20.112467 7.5189209"
   version="1.1"
   id="svg8">
  <defs
     id="defs2" />
  <metadata
     id="metadata5">
    <rdf:RDF>
      <cc:Work
         rdf:about="">
        <dc:format>image/svg+xml</dc:format>
        <dc:type
           rdf:resource="http://purl.org/dc/dcmitype/StillImage" />
        <dc:title></dc:title>
      </cc:Work>
    </rdf:RDF>
  </metadata>
  <g
     id="layer1"
     transform="translate(-21.237463,-24.039876)">
    <g
       id="flowRoot815"
       style="font-style:normal;font-weight:normal;font-size:40px;line-height:1.25;font-family:sans-serif;letter-spacing:0px;word-spacing:0px;fill:#000000;fill-opacity:1;stroke:none"
       transform="scale(0.26458333)"
       aria-label="RAM">
      <path
         id="path1385"
         style="font-style:normal;font-variant:normal;font-weight:bold;font-stretch:normal;font-size:40px;font-family:Bahnschrift;-inkscape-font-specification:'Bahnschrift, Bold';font-variant-ligatures:normal;font-variant-caps:normal;font-variant-numeric:normal;font-feature-settings:normal;text-align:start;writing-mode:lr-tb;text-anchor:start"
         d="m 82.396484,102.69531 h 9.882813 q 0.820312,0 1.445312,-0.41015 0.625,-0.41016 0.957032,-1.17188 0.351562,-0.76172 0.371093,-1.757811 v 0 q 0,-0.996094 -0.351562,-1.757813 -0.332031,-0.761719 -0.957031,-1.171875 -0.625,-0.410156 -1.464844,-0.410156 h -9.882813 v -5.15625 h 10.3125 q 2.34375,0 4.121094,1.054687 1.777344,1.054688 2.753906,2.988282 0.976566,1.914062 0.976566,4.453125 v 0 q 0,2.539061 -0.976566,4.472661 -0.976562,1.91406 -2.773437,2.96875 -1.777344,1.05468 -4.101563,1.05468 h -10.3125 z M 80.267578,90.859375 h 5.351563 v 28.417965 h -5.351563 z m 8.105469,16.113285 5.722656,-0.89844 7.656247,13.20312 h -6.484372 z" />
      <path
         id="path1387"
         style="font-style:normal;font-variant:normal;font-weight:bold;font-stretch:normal;font-size:40px;font-family:Bahnschrift;-inkscape-font-specification:'Bahnschrift, Bold';font-variant-ligatures:normal;font-variant-caps:normal;font-variant-numeric:normal;font-feature-settings:normal;text-align:start;writing-mode:lr-tb;text-anchor:start"
         d="m 113.54883,90.878906 h 3.39844 l 10.85937,28.398434 h -5.76172 l -6.79687,-19.394528 -6.79688,19.394528 h -5.76172 z m -5.64453,18.691404 h 14.9414 v 5.15625 h -14.9414 z" />
      <path
         id="path1389"
         style="font-style:normal;font-variant:normal;font-weight:bold;font-stretch:normal;font-size:40px;font-family:Bahnschrift;-inkscape-font-specification:'Bahnschrift, Bold';font-variant-ligatures:normal;font-variant-caps:normal;font-variant-numeric:normal;font-feature-settings:normal;text-align:start;writing-mode:lr-tb;text-anchor:start"
         d="m 149.23242,90.878906 h 7.05078 v 28.398434 h -4.86328 V 97.226562 l 0.19531,1.25 -5.42968,17.636718 h -4.72657 l -5.42968,-17.246093 0.19531,-1.640625 v 22.050778 h -4.86328 V 90.878906 h 7.05078 l 5.41016,19.140624 z" />
    </g>
  </g>
</svg>
