<?xml version="1.0" encoding="UTF-8" standalone="no"?>
<svg
   xmlns:dc="http://purl.org/dc/elements/1.1/"
   xmlns:cc="http://creativecommons.org/ns#"
   xmlns:rdf="http://www.w3.org/1999/02/22-rdf-syntax-ns#"
   xmlns:svg="http://www.w3.org/2000/svg"
   xmlns="http://www.w3.org/2000/svg"
   width="18.479492mm"
   height="7.6687822mm"
   viewBox="0 0 18.479492 7.6687822"
   version="1.1"
   id="svg8">
  <defs
     id="defs2" />
  <metadata
     id="metadata5">
    <rdf:RDF>
      <cc:Work
         rdf:about="">
        <dc:format>image/svg+xml</dc:format>
        <dc:type
           rdf:resource="http://purl.org/dc/dcmitype/StillImage" />
        <dc:title></dc:title>
      </cc:Work>
    </rdf:RDF>
  </metadata>
  <g
     id="layer1"
     transform="translate(-21.082434,-23.967529)">
    <g
       id="flowRoot815"
       style="font-style:normal;font-weight:normal;font-size:40px;line-height:1.25;font-family:sans-serif;letter-spacing:0px;word-spacing:0px;fill:#000000;fill-opacity:1;stroke:none"
       transform="scale(0.26458333)"
       aria-label="CPU">
      <path
         id="path2505"
         style="font-style:normal;font-variant:normal;font-weight:bold;font-stretch:normal;font-size:40px;font-family:Bahnschrift;-inkscape-font-specification:'Bahnschrift, Bold';font-variant-ligatures:normal;font-variant-caps:normal;font-variant-numeric:normal;font-feature-settings:normal;text-align:start;writing-mode:lr-tb;text-anchor:start"
         d="m 89.955078,119.57031 q -3.242187,0 -5.546875,-1.23047 -2.304687,-1.25 -3.515625,-3.61328 -1.210937,-2.38281 -1.210937,-5.74218 v -7.79297 q 0,-3.359379 1.210937,-5.72266 1.210938,-2.382813 3.515625,-3.632813 2.304688,-1.25 5.546875,-1.25 2.675781,0 4.785156,1.152344 2.109375,1.152344 3.476563,3.359375 1.386719,2.1875 1.914063,5.292974 v 0 h -5.546876 v 0 q -0.3125,-1.406255 -0.976562,-2.402349 -0.644531,-0.996094 -1.582031,-1.523437 -0.917969,-0.527344 -2.070313,-0.527344 -1.503906,0 -2.558594,0.625 -1.054687,0.605469 -1.621093,1.796875 -0.546875,1.171875 -0.546875,2.832035 v 7.79297 q 0,1.66015 0.546875,2.83203 0.566406,1.17187 1.621093,1.79687 1.054688,0.60547 2.558594,0.60547 1.171875,0 2.109375,-0.50781 0.9375,-0.52735 1.582031,-1.52344 0.644532,-0.99609 0.9375,-2.42187 v 0 h 5.546876 v 0 q -0.546876,3.10546 -1.933594,5.3125 -1.367188,2.1875 -3.476563,3.33984 -2.089844,1.15234 -4.765625,1.15234 z" />
      <path
         id="path2507"
         style="font-style:normal;font-variant:normal;font-weight:bold;font-stretch:normal;font-size:40px;font-family:Bahnschrift;-inkscape-font-specification:'Bahnschrift, Bold';font-variant-ligatures:normal;font-variant-caps:normal;font-variant-numeric:normal;font-feature-settings:normal;text-align:start;writing-mode:lr-tb;text-anchor:start"
         d="m 107.08398,103.10547 h 9.08204 q 0.95703,0 1.67968,-0.42969 0.74219,-0.44922 1.15235,-1.25 0.41015,-0.80078 0.41015,-1.835936 v 0 q 0,-1.054688 -0.41015,-1.855469 -0.39063,-0.820313 -1.13282,-1.25 -0.72265,-0.449219 -1.69921,-0.449219 h -9.08204 v -5.15625 h 8.94532 q 2.65625,0 4.66797,1.09375 2.03125,1.074219 3.14453,3.046875 1.11328,1.972656 1.11328,4.570313 v 0 q 0,2.597656 -1.11328,4.570316 -1.11328,1.95312 -3.14453,3.02734 -2.01172,1.07422 -4.66797,1.07422 h -8.94532 z m -2.4414,-12.226564 h 5.35156 v 28.398434 h -5.35156 z" />
      <path
         id="path2509"
         style="font-style:normal;font-variant:normal;font-weight:bold;font-stretch:normal;font-size:40px;font-family:Bahnschrift;-inkscape-font-specification:'Bahnschrift, Bold';font-variant-ligatures:normal;font-variant-caps:normal;font-variant-numeric:normal;font-feature-settings:normal;text-align:start;writing-mode:lr-tb;text-anchor:start"
         d="m 139.13477,119.57031 q -3.28125,0 -5.60547,-1.23047 -2.32422,-1.25 -3.53516,-3.61328 -1.21094,-2.38281 -1.21094,-5.72265 V 90.878906 h 5.35157 v 18.261724 q 0,2.4414 1.30859,3.78906 1.30859,1.34765 3.69141,1.34765 2.40234,0 3.71093,-1.34765 1.32813,-1.34766 1.32813,-3.78906 V 90.878906 h 5.35156 v 18.125004 q 0,3.33984 -1.23047,5.72265 -1.21094,2.36328 -3.55469,3.61328 -2.32421,1.23047 -5.60546,1.23047 z" />
    </g>
  </g>
</svg>
