<?xml version="1.0" encoding="UTF-8" standalone="no"?>
<svg
   xmlns:dc="http://purl.org/dc/elements/1.1/"
   xmlns:cc="http://creativecommons.org/ns#"
   xmlns:rdf="http://www.w3.org/1999/02/22-rdf-syntax-ns#"
   xmlns:svg="http://www.w3.org/2000/svg"
   xmlns="http://www.w3.org/2000/svg"
   width="18.768881mm"
   height="7.6687822mm"
   viewBox="0 0 18.768881 7.6687822"
   version="1.1"
   id="svg8">
  <defs
     id="defs2" />
  <metadata
     id="metadata5">
    <rdf:RDF>
      <cc:Work
         rdf:about="">
        <dc:format>image/svg+xml</dc:format>
        <dc:type
           rdf:resource="http://purl.org/dc/dcmitype/StillImage" />
        <dc:title></dc:title>
      </cc:Work>
    </rdf:RDF>
  </metadata>
  <g
     id="layer1"
     transform="translate(-21.082434,-23.967529)">
    <g
       id="flowRoot815"
       style="font-style:normal;font-weight:normal;font-size:40px;line-height:1.25;font-family:sans-serif;letter-spacing:0px;word-spacing:0px;fill:#000000;fill-opacity:1;stroke:none"
       transform="scale(0.26458333)"
       aria-label="GPU">
      <path
         id="path1945"
         style="font-style:normal;font-variant:normal;font-weight:bold;font-stretch:normal;font-size:40px;font-family:Bahnschrift;-inkscape-font-specification:'Bahnschrift, Bold';font-variant-ligatures:normal;font-variant-caps:normal;font-variant-numeric:normal;font-feature-settings:normal;text-align:start;writing-mode:lr-tb;text-anchor:start"
         d="m 100.46289,103.39844 v 5.54687 q 0,3.16407 -1.289062,5.58594 -1.269531,2.40234 -3.613281,3.73047 -2.34375,1.30859 -5.429688,1.30859 -3.105468,0 -5.488281,-1.23047 -2.363281,-1.25 -3.671875,-3.51562 -1.289062,-2.26563 -1.289062,-5.25391 v -8.3789 q 0,-3.164066 1.269531,-5.56641 1.289062,-2.402344 3.632812,-3.710938 2.34375,-1.328125 5.429688,-1.328125 2.539062,0 4.6875,1.054688 2.148437,1.035156 3.574219,2.949219 1.445312,1.914062 1.953129,4.433593 v 0 h -5.781254 v 0 Q 94.154297,98.125 93.470703,97.480469 q -0.664062,-0.664063 -1.582031,-0.996094 -0.898438,-0.351563 -1.875,-0.351563 -1.425781,0 -2.519531,0.625 -1.074219,0.625 -1.679688,1.777344 -0.585937,1.152344 -0.585937,2.656254 v 8.3789 q 0,1.32813 0.605468,2.34375 0.605469,1.01563 1.71875,1.5625 1.113282,0.54688 2.578125,0.54688 1.445313,0 2.519532,-0.58594 1.09375,-0.60547 1.679687,-1.73828 0.585938,-1.13281 0.585938,-2.67578 v -0.46875 h -4.296875 v -5.15625 z" />
      <path
         id="path1947"
         style="font-style:normal;font-variant:normal;font-weight:bold;font-stretch:normal;font-size:40px;font-family:Bahnschrift;-inkscape-font-specification:'Bahnschrift, Bold';font-variant-ligatures:normal;font-variant-caps:normal;font-variant-numeric:normal;font-feature-settings:normal;text-align:start;writing-mode:lr-tb;text-anchor:start"
         d="m 108.17773,103.10547 h 9.08204 q 0.95703,0 1.67968,-0.42969 0.74219,-0.44922 1.15235,-1.25 0.41015,-0.80078 0.41015,-1.835936 v 0 q 0,-1.054688 -0.41015,-1.855469 -0.39063,-0.820313 -1.13282,-1.25 -0.72265,-0.449219 -1.69921,-0.449219 h -9.08204 v -5.15625 h 8.94532 q 2.65625,0 4.66797,1.09375 2.03125,1.074219 3.14453,3.046875 1.11328,1.972656 1.11328,4.570313 v 0 q 0,2.597656 -1.11328,4.570316 -1.11328,1.95312 -3.14453,3.02734 -2.01172,1.07422 -4.66797,1.07422 h -8.94532 z m -2.4414,-12.226564 h 5.35156 v 28.398434 h -5.35156 z" />
      <path
         id="path1949"
         style="font-style:normal;font-variant:normal;font-weight:bold;font-stretch:normal;font-size:40px;font-family:Bahnschrift;-inkscape-font-specification:'Bahnschrift, Bold';font-variant-ligatures:normal;font-variant-caps:normal;font-variant-numeric:normal;font-feature-settings:normal;text-align:start;writing-mode:lr-tb;text-anchor:start"
         d="m 140.22852,119.57031 q -3.28125,0 -5.60547,-1.23047 -2.32422,-1.25 -3.53516,-3.61328 -1.21094,-2.38281 -1.21094,-5.72265 V 90.878906 h 5.35157 v 18.261724 q 0,2.4414 1.30859,3.78906 1.30859,1.34765 3.69141,1.34765 2.40234,0 3.71093,-1.34765 1.32813,-1.34766 1.32813,-3.78906 V 90.878906 h 5.35156 v 18.125004 q 0,3.33984 -1.23047,5.72265 -1.21094,2.36328 -3.55469,3.61328 -2.32421,1.23047 -5.60546,1.23047 z" />
    </g>
  </g>
</svg>
